<mxfile host="app.diagrams.net" modified="2022-07-15T07:58:08.507Z" agent="5.0 (Windows NT 10.0; Win64; x64) AppleWebKit/537.36 (KHTML, like Gecko) Chrome/102.0.0.0 Safari/537.36" etag="GdkeKunJrUCIdF2NfDif" version="20.0.4" type="github">
  <diagram id="74pQ49EqqfoeVRiEvyAD" name="第 1 页">
    <mxGraphModel dx="942" dy="642" grid="1" gridSize="10" guides="1" tooltips="1" connect="1" arrows="1" fold="1" page="1" pageScale="1" pageWidth="3300" pageHeight="4681" math="0" shadow="0">
      <root>
        <mxCell id="0" />
        <mxCell id="1" parent="0" />
        <mxCell id="qApszvKeOyM4LLeodyXb-3" value="" style="edgeStyle=orthogonalEdgeStyle;rounded=0;orthogonalLoop=1;jettySize=auto;html=1;" edge="1" parent="1" source="qApszvKeOyM4LLeodyXb-1" target="qApszvKeOyM4LLeodyXb-2">
          <mxGeometry relative="1" as="geometry" />
        </mxCell>
        <mxCell id="qApszvKeOyM4LLeodyXb-5" style="rounded=0;orthogonalLoop=1;jettySize=auto;html=1;exitX=0.5;exitY=1;exitDx=0;exitDy=0;entryX=0;entryY=0.5;entryDx=0;entryDy=0;" edge="1" parent="1" source="qApszvKeOyM4LLeodyXb-1" target="qApszvKeOyM4LLeodyXb-4">
          <mxGeometry relative="1" as="geometry" />
        </mxCell>
        <UserObject label="server1" treeRoot="1" id="qApszvKeOyM4LLeodyXb-1">
          <mxCell style="whiteSpace=wrap;html=1;align=center;collapsible=0;container=1;recursiveResize=0;" vertex="1" parent="1">
            <mxGeometry x="60" y="190" width="120" height="60" as="geometry" />
          </mxCell>
        </UserObject>
        <UserObject label="server2" id="qApszvKeOyM4LLeodyXb-2">
          <mxCell style="whiteSpace=wrap;html=1;align=center;collapsible=0;container=1;recursiveResize=0;" vertex="1" parent="1">
            <mxGeometry x="260" y="190" width="120" height="60" as="geometry" />
          </mxCell>
        </UserObject>
        <mxCell id="qApszvKeOyM4LLeodyXb-15" style="edgeStyle=none;rounded=0;orthogonalLoop=1;jettySize=auto;html=1;exitX=1;exitY=0.5;exitDx=0;exitDy=0;entryX=0.5;entryY=1;entryDx=0;entryDy=0;" edge="1" parent="1" source="qApszvKeOyM4LLeodyXb-4" target="qApszvKeOyM4LLeodyXb-2">
          <mxGeometry relative="1" as="geometry" />
        </mxCell>
        <UserObject label="server3" treeRoot="1" id="qApszvKeOyM4LLeodyXb-4">
          <mxCell style="whiteSpace=wrap;html=1;align=center;collapsible=0;container=1;recursiveResize=0;" vertex="1" parent="1">
            <mxGeometry x="160" y="320" width="120" height="60" as="geometry" />
          </mxCell>
        </UserObject>
        <UserObject label="server1" treeRoot="1" id="qApszvKeOyM4LLeodyXb-8">
          <mxCell style="whiteSpace=wrap;html=1;align=center;collapsible=0;container=1;recursiveResize=0;" vertex="1" parent="1">
            <mxGeometry x="460" y="190" width="120" height="60" as="geometry" />
          </mxCell>
        </UserObject>
        <UserObject label="server1" treeRoot="1" id="qApszvKeOyM4LLeodyXb-9">
          <mxCell style="whiteSpace=wrap;html=1;align=center;collapsible=0;container=1;recursiveResize=0;" vertex="1" parent="1">
            <mxGeometry x="610" y="190" width="120" height="60" as="geometry" />
          </mxCell>
        </UserObject>
        <UserObject label="server1" treeRoot="1" id="qApszvKeOyM4LLeodyXb-10">
          <mxCell style="whiteSpace=wrap;html=1;align=center;collapsible=0;container=1;recursiveResize=0;" vertex="1" parent="1">
            <mxGeometry x="760" y="190" width="120" height="60" as="geometry" />
          </mxCell>
        </UserObject>
        <mxCell id="qApszvKeOyM4LLeodyXb-12" style="edgeStyle=orthogonalEdgeStyle;rounded=0;orthogonalLoop=1;jettySize=auto;html=1;exitX=0.5;exitY=0;exitDx=0;exitDy=0;entryX=0.5;entryY=1;entryDx=0;entryDy=0;" edge="1" parent="1" source="qApszvKeOyM4LLeodyXb-11" target="qApszvKeOyM4LLeodyXb-8">
          <mxGeometry relative="1" as="geometry" />
        </mxCell>
        <mxCell id="qApszvKeOyM4LLeodyXb-13" style="edgeStyle=orthogonalEdgeStyle;rounded=0;orthogonalLoop=1;jettySize=auto;html=1;exitX=0.5;exitY=0;exitDx=0;exitDy=0;entryX=0.5;entryY=1;entryDx=0;entryDy=0;" edge="1" parent="1" source="qApszvKeOyM4LLeodyXb-11" target="qApszvKeOyM4LLeodyXb-9">
          <mxGeometry relative="1" as="geometry" />
        </mxCell>
        <mxCell id="qApszvKeOyM4LLeodyXb-14" style="edgeStyle=orthogonalEdgeStyle;rounded=0;orthogonalLoop=1;jettySize=auto;html=1;exitX=0.5;exitY=0;exitDx=0;exitDy=0;entryX=0.5;entryY=1;entryDx=0;entryDy=0;" edge="1" parent="1" source="qApszvKeOyM4LLeodyXb-11" target="qApszvKeOyM4LLeodyXb-10">
          <mxGeometry relative="1" as="geometry" />
        </mxCell>
        <UserObject label="common&lt;br&gt;server" treeRoot="1" id="qApszvKeOyM4LLeodyXb-11">
          <mxCell style="whiteSpace=wrap;html=1;align=center;collapsible=0;container=1;recursiveResize=0;" vertex="1" parent="1">
            <mxGeometry x="610" y="330" width="120" height="60" as="geometry" />
          </mxCell>
        </UserObject>
        <mxCell id="qApszvKeOyM4LLeodyXb-17" value="SOA" style="text;html=1;strokeColor=none;fillColor=none;align=center;verticalAlign=middle;whiteSpace=wrap;rounded=0;" vertex="1" parent="1">
          <mxGeometry x="200" y="120" width="60" height="30" as="geometry" />
        </mxCell>
        <mxCell id="qApszvKeOyM4LLeodyXb-18" value="中台" style="text;html=1;strokeColor=none;fillColor=none;align=center;verticalAlign=middle;whiteSpace=wrap;rounded=0;" vertex="1" parent="1">
          <mxGeometry x="640" y="120" width="60" height="30" as="geometry" />
        </mxCell>
      </root>
    </mxGraphModel>
  </diagram>
</mxfile>
